<svg viewBox="0 0 345.6 254.51" xmlns="http://www.w3.org/2000/svg"><rect fill="#007c70" height="213.15" rx="12" width="213.15" x="55.6" y="41.36"/><circle cx="246.69" cy="11.71" fill="#007c70" r="11.71"/><rect fill="#007c70" height="36.14" rx="3.72" transform="matrix(.8660254 .5 -.5 .8660254 86.41 -430.49)" width="7.44" x="356.18" y="308"/><circle cx="15.68" cy="75.8" fill="#007c70" r="15.68"/><rect fill="#007c70" height="48.41" rx="3.72" transform="matrix(.4080118 -.91297666 .91297666 .4080118 -374.25 86.61)" width="9.97" x="163.98" y="358.53"/><path d="m283.13 411.31h1.06l-.52-1.56z" fill="none" transform="translate(-124.84 -294.22)"/><path d="m375.32 420.21c2.1-25.5-7.44-36.45-30.53-25.5a79.34 79.34 0 0 1 -10.79 3.76l-10.49 3-13.26 37.53-4.78-26.58-12.23 26.05-9.05-27.15h-1.06l-10.62 30.85-11.69-29.77-6.38 29.77-17.68-39.7-5.91-4a110.24 110.24 0 0 0 -13.4-7.33c-16.74-7.49-22 12.66-21.21 28.67.77 15.67 5.19 30.81 8.91 38.21 10.71 21.25 29.14 46.27 54.59 60-1-1.22 8-34.39 8-34.39l6.91 35.61 9.83-31.89 16.74 28.65 3.19-32.42 11.46 34.9c17.2-9 36.29-25.21 45.68-40.23 8.88-14.17 12.22-39.35 13.77-58.04z" fill="#231f20" transform="translate(-124.84 -294.22)"/><ellipse cx="115.19" cy="74.9" fill="#fff" rx="19.92" ry="22.59"/><ellipse cx="205.49" cy="78.01" fill="#fff" rx="14.46" ry="11.54"/><circle cx="114.41" cy="78.16" fill="#231f20" r="9.57"/><circle cx="210.28" cy="76.15" fill="#231f20" r="4.78"/><g transform="translate(-124.84 -294.22)"><path d="m143.87 463.2a49.71 49.71 0 0 1 10.37-1.72l3.77-.93 5.09-1.41 5.2-.63 4.57-1.39a38.82 38.82 0 0 1 10.41.59q9.21 2.55 9.45 3.4 3.95 2.63 5 4.29a33.53 33.53 0 0 1 4.41 6.08q3 4.15 3.43 5.55a87.3 87.3 0 0 0 3.13 8.87q1.15 5.94 2.42 11.51c.16 3.74.08 5.78-.24 6.1l-2.39 9.83q-2.53 5.34-3.3 5.9c-1.58 2.45-4.58 5.41-9 8.88l-5 2.54-2.78.77-1.25.34c-3.8 1.43-8.08 2.88-12.83 4.38l-6.5 2.62-2.49.69a92.46 92.46 0 0 1 -9.67 1.3q-1.19-2.7-3.71-10.92l-2-4.44-1.07-6q-1.94-6.88-5.08-15.06l-2.81-11.23q-.9-3.23-3.08-9.82l-1.35-6.24-1.28-4.16c-.53-3.34-.76-5-.7-5zm17.74 19.59v.1c.83 4.17 1.62 7.54 2.34 10.12l2.16 5.07.82 5.45a95.46 95.46 0 0 0 3.43 9.93h.09l6.43-1.78 2.2-.62q5.46-3 5.28-3.66 2.48-4 2.36-4.48c.22-4.07.08-7-.42-8.79l-.39-2.1c-1.54-3.74-2.4-5.58-2.6-5.53a24.22 24.22 0 0 0 -3.51-3.65 27 27 0 0 0 -3.69-2.45 57 57 0 0 0 -14.5 2.39z" fill="#e897bb"/><path d="m217.44 442.76q10.16-2.47 10.25-2.15c2.53-.08 3.82-.05 3.86.09l1.83 5.77 3.21 13.16.36 1.3 1.93 5.73q1.2 5.71 2.18 9.16 1.8 6.36 6.49 20.38l.42 1.51 1 5.66 2 5.14c.72 3.52 1 5.3.79 5.36a38.31 38.31 0 0 1 -4.17 2.44l-3.26.9-5.38 1.84a24 24 0 0 1 -8.74.92l-2.21-5.09-1-5.52q-1.89-5.62-3.72-10.23l-1-5.42-1.68-5.22-1.24-5.12-1.69-5.22-2.67-10.56-1.87-5.17-.37-1.29a147.77 147.77 0 0 1 -3.34-14.75 55.58 55.58 0 0 1 8.02-3.62z" fill="#e897bb"/><path d="m270.91 425.55 1.92-.53q19.25-5.11 19.58-3.93a22.1 22.1 0 0 1 7 2.22c.91.06 3.07 1.47 6.47 4.25q-1.87 5.06-3.77 11.15a38.11 38.11 0 0 0 -3.81 8.49l-.66 2.05-.19.05q-3.69-3.85-4-3.78l-4.71-.55-5.69 1.82-3.55 1c-2.92 2.6-4.31 4.14-4.17 4.65-1.32 3.15-1.87 5.09-1.67 5.8l-.46 3.85 1.92 6.09 1.34 5.09q3.41 4.74 3.89 5 4.24 3.35 4.83 3.19c3.07.85 4.82 1.21 5.27 1.09l4.51-.91q4.82-3.07 4.75-3.29l-1.34-4.74-.12-.43-5.46 1.17-3 1-2.21.61-.12-.08h-.1l-.92-5.09-1.72-5q-.86-3-1.18-4.9l-.37-.94-.27-1-.95-3q-.06-.21 5-2.19l5.68-1.12 10.37-2.79 9.66-2.79q2.55 4.28 6.15 17l1.32 3.58a85.86 85.86 0 0 1 2 10.72l1.91 4.93.78 5.7c-2.42 3.16-3.95 4.82-4.59 5l-6.5 5.52-4.39 2-4.92.55-4.7 1.65-5.08.72-4.79 1.33q-6.42.73-6.6.09a72.05 72.05 0 0 1 -9.55-3q-4.67-1.14-4.82-1.68a47.54 47.54 0 0 1 -7.68-7.4c-2.7-2.5-4.15-4.07-4.33-4.72a32.58 32.58 0 0 1 -2.91-6.63l-1-3-1.35-5.42-2.23-5.3a42.06 42.06 0 0 0 -.77-9c-.47-1.65-.5-2.84-.08-3.58a41.73 41.73 0 0 0 1.55-9.14q-.15-.54 3.21-6.58a24.48 24.48 0 0 1 4.31-5.62q1-1.44 5.67-4.82l3.35-3.14z" fill="#e897bb"/><path d="m344 405.28 1.92-.54q19.24-5.1 19.58-3.93a22 22 0 0 1 7 2.23q1.37.09 6.48 4.24-1.89 5.06-3.78 11.16a37.71 37.71 0 0 0 -3.81 8.49l-.66 2-.19.06c-2.45-2.57-3.78-3.83-4-3.78l-4.71-.55-5.69 1.81-3.55 1q-4.38 3.88-4.17 4.64c-1.32 3.16-1.87 5.09-1.67 5.81l-.46 3.85 1.93 6.08 1.33 5.09q3.41 4.75 3.89 5 4.25 3.36 4.83 3.19 4.61 1.29 5.27 1.09l4.51-.9c3.21-2.05 4.8-3.15 4.75-3.3l-1.34-4.74-.12-.43-5.34 1.15-3 1-2.21.62-.12-.08h-.1l-.92-5.09-1.72-5q-.86-3-1.18-4.9l-.37-.94-.27-1-1-3q-.06-.21 5-2.19l5.68-1.12 10.39-2.77 9.66-2.8q2.55 4.29 6.15 17l1.32 3.58a85.49 85.49 0 0 1 2 10.72l1.91 4.93.78 5.7c-2.41 3.15-3.95 4.82-4.58 5l-6.51 5.53-4.39 2-4.92.55-4.7 1.66-5.08.71-4.82 1.4c-4.28.5-6.48.52-6.6.09a70.58 70.58 0 0 1 -9.55-3q-4.66-1.14-4.82-1.68a47.41 47.41 0 0 1 -7.67-7.39c-2.71-2.5-4.16-4.08-4.34-4.72a32.58 32.58 0 0 1 -2.91-6.63l-1-3-1.33-5.44-2.23-5.31a41.35 41.35 0 0 0 -.77-9c-.47-1.65-.5-2.84-.08-3.58a41.93 41.93 0 0 0 1.55-9.14q-.15-.54 3.21-6.59a24.62 24.62 0 0 1 4.31-5.61q1-1.46 5.67-4.83l3.35-3.14z" fill="#e897bb"/><path d="m416.5 384.49 1.92-.53q19.25-5.11 19.58-3.96a21.94 21.94 0 0 1 7 2.22c.92.06 3.07 1.47 6.48 4.25-1.26 3.37-2.51 7.08-3.78 11.15a38.3 38.3 0 0 0 -3.8 8.5l-.67 2-.19.05q-3.68-3.86-4-3.78l-4.71-.55-5.7 1.82-3.55 1c-2.92 2.6-4.31 4.14-4.17 4.65-1.31 3.15-1.87 5.09-1.66 5.8l-.47 3.85 1.93 6.09 1.33 5.09c2.28 3.16 3.57 4.81 3.89 5q4.26 3.35 4.83 3.19 4.61 1.28 5.28 1.09l4.5-.9q4.81-3.09 4.76-3.3l-1.3-4.73-.12-.43-5.47 1.17-3 1-2.2.61-.13-.08h-.09l-.93-5.09-1.71-5a47.87 47.87 0 0 1 -1.18-4.9l-.37-.94-.28-1-.95-3q-.06-.21 5-2.19l5.69-1.12 10.39-2.77 9.65-2.79q2.57 4.28 6.15 17l1.33 3.58a86.24 86.24 0 0 1 2 10.72l1.91 4.93.79 5.7c-2.42 3.16-3.95 4.82-4.59 5l-6.51 5.52-4.39 2-4.99.59-4.71 1.65-5.07.72-4.8 1.33q-6.4.74-6.59.09a71.14 71.14 0 0 1 -9.55-3c-3.12-.76-4.72-1.32-4.82-1.68a47.54 47.54 0 0 1 -7.68-7.4c-2.71-2.5-4.15-4.07-4.34-4.72a31.92 31.92 0 0 1 -2.9-6.63l-1.05-3-1.29-5.36-2.22-5.3a41.19 41.19 0 0 0 -.78-9c-.47-1.65-.49-2.84-.08-3.58a40.57 40.57 0 0 0 1.55-9.14q-.15-.54 3.21-6.58a24.76 24.76 0 0 1 4.31-5.62q1-1.44 5.67-4.82l3.36-3.14z" fill="#e897bb"/><path d="m284.19 411.29 9.05 27.15 12.23-26.05 4.78 26.61 13.28-37.52-25.81 7.32a44.64 44.64 0 0 1 -13.53 2.49z" fill="#fff"/><path d="m301.22 516-16.75-28.7-9.83 31.89-6.91-35.61s-10.07 33.22-10 33.29a20.72 20.72 0 0 0 2 1.1 61.52 61.52 0 0 0 20.27 6.86h.24 14.31c6.47 0 13.83-2.41 21.35-6.33l-11.46-34.9z" fill="#fff"/><path d="m260.82 412.39 11.69 29.77 10.62-30.85c-5 0-20.91.5-35.91-4a5.35 5.35 0 0 1 -1.05-.42l-9.41-4.45 17.68 39.7z" fill="#fff"/></g><rect fill="#f5a0c5" height="19.72" rx="8.72" transform="matrix(.95645771 -.29187094 .29187094 .95645771 -239.23 -213.44)" width="19.72" x="203.74" y="413.97"/></svg>